<svg width="18.000000" height="24.000000" viewBox="0 0 18 24" fill="none" xmlns="http://www.w3.org/2000/svg" xmlns:xlink="http://www.w3.org/1999/xlink">
	<desc>
			Created with Pixso.
	</desc>
	<defs/>
	<path id="outline" d="M16 16.3638C16 19.1811 13.1868 22 9 22C4.81323 22 2 19.1811 2 16.3638C2 13.4416 3.90063 9.8024 6.13452 6.63431C7.14429 5.20239 8.15747 3.95509 8.94995 3.03368C9.75757 4.02708 10.8052 5.37938 11.8494 6.90552C12.9377 8.49673 13.9966 10.2398 14.7766 11.9362C15.571 13.6638 16 15.1806 16 16.3638ZM0 16.3638C0 10.927 5.13135 4.37097 7.64478 1.48563C8.46021 0.549698 9 0 9 0C9 0 9.51733 0.571762 10.3037 1.52954C12.7979 4.567 18 11.4867 18 16.3638C18 20.5812 13.9705 24 9 24C4.02954 24 0 20.5812 0 16.3638ZM4.49829 13L6.6499 13C6.24512 13.9239 6 14.8001 6 15.5455C6 16.6901 7.11963 18 9 18L9 20C6.23853 20 4 18.0057 4 15.5455C4 14.7246 4.19092 13.86 4.49829 13Z" fill="#FFFFFF" fill-opacity="1.000000" fill-rule="evenodd"/>
</svg>
