<svg width="14.000000" height="26.000000" viewBox="0 0 14 26" fill="none" xmlns="http://www.w3.org/2000/svg" xmlns:xlink="http://www.w3.org/1999/xlink">
	<desc>
			Created with Pixso.
	</desc>
	<defs/>
	<path id="Vector" d="M8.14819 16.8763L8.14819 11.2272C8.14819 10.9138 8.02563 10.6132 7.80737 10.3916C7.58911 10.1699 7.29321 10.0454 6.98438 10.0454C6.67578 10.0454 6.37988 10.1699 6.16162 10.3916C5.94336 10.6132 5.82056 10.9138 5.82056 11.2272L5.82056 16.8763C5.46875 17.0826 5.17627 17.3787 4.97217 17.7353C4.76807 18.0919 4.65918 18.4966 4.65674 18.909C4.65674 19.5359 4.9021 20.1371 5.33862 20.5804C5.77515 21.0236 6.36719 21.2727 6.98438 21.2727C7.60181 21.2727 8.19385 21.0236 8.63037 20.5804C9.06689 20.1371 9.31226 19.5359 9.31226 18.909C9.30981 18.4966 9.20093 18.0919 8.99683 17.7353C8.79272 17.3787 8.5 17.0826 8.14819 16.8763ZM12.2217 14.1818L12.2217 5.31816C12.2217 3.9077 11.6699 2.55501 10.6877 1.55765C9.70557 0.560303 8.37354 0 6.98438 0C5.59546 0 4.26343 0.560303 3.28125 1.55765C2.29907 2.55501 1.74731 3.9077 1.74731 5.31816L1.74731 14.1818C0.942871 15.1074 0.390381 16.2302 0.144287 17.4391C-0.101562 18.6481 -0.0324707 19.9013 0.344971 21.0748C0.722412 22.2483 1.39478 23.3014 2.29614 24.13C3.19727 24.9585 4.2959 25.5339 5.48315 25.799C5.97632 25.9132 6.479 25.9804 6.98438 25.9999C8.33521 26.0063 9.65894 25.6147 10.7949 24.8726C11.9309 24.1306 12.8306 23.0698 13.385 21.819C13.9392 20.5681 14.1245 19.1809 13.918 17.8253C13.7114 16.4698 13.1223 15.2041 12.2217 14.1818ZM9.89404 22.5372C8.96802 23.3709 7.75391 23.797 6.51855 23.7216C5.2832 23.6463 4.12793 23.0757 3.30664 22.1354C2.4856 21.1951 2.06616 19.9621 2.14038 18.7076C2.2146 17.4532 2.77637 16.2801 3.70239 15.4463C3.8125 15.3369 3.8999 15.2063 3.95996 15.0623C4.01978 14.9183 4.05103 14.7636 4.05151 14.6072L4.05151 5.31816C4.05151 4.53458 4.35815 3.78308 4.90381 3.22899C5.44946 2.67491 6.18945 2.36363 6.96118 2.36363C7.73291 2.36363 8.4729 2.67491 9.01855 3.22899C9.56421 3.78308 9.87085 4.53458 9.87085 5.31816L9.87085 14.7018C9.87134 14.8581 9.90259 15.0128 9.96265 15.1568C10.0225 15.3009 10.1099 15.4314 10.22 15.5409C10.6956 16.0075 11.0679 16.5718 11.312 17.196C11.5562 17.8203 11.6665 18.4902 11.6357 19.1611C11.605 19.8321 11.4336 20.4886 11.1333 21.0871C10.833 21.6855 10.4104 22.2121 9.89404 22.6317L9.89404 22.5372Z" fill="#6D97CA" fill-opacity="1.000000" fill-rule="nonzero"/>
</svg>
