<svg width="22.000000" height="22.000000" viewBox="0 0 22 22" fill="none" xmlns="http://www.w3.org/2000/svg" xmlns:xlink="http://www.w3.org/1999/xlink">
	<desc>
			Created with Pixso.
	</desc>
	<defs/>
	<path id="outline" d="M7.48926 4.75824C7.76733 4.72918 8.04956 4.71429 8.33496 4.71429C12.1543 4.71429 15.3733 7.37767 16.3594 11.0109C16.4382 11.0058 16.5176 11.0024 16.5974 11.0009C16.5652 11.0004 16.5325 11.0001 16.5 11.0001L16.4736 11.0001L16.4736 11L17.6785 11L17.7258 11L17.7258 10.9996C19.2229 10.9743 20.4285 9.75298 20.4285 8.25C20.4285 6.73122 19.1973 5.5 17.6785 5.5C17.1687 5.5 16.6912 5.6388 16.2817 5.88068C16.2805 5.44168 16.2139 5.01807 16.0908 4.61909C15.4788 2.84544 13.7944 1.57143 11.8127 1.57143C9.77954 1.57143 8.05981 2.91245 7.48926 4.75824ZM19.7817 12.026C21.1248 13.0239 22 14.656 22 16.5C22 19.5375 19.6252 22 16.6958 22C16.6304 22 16.5649 21.9987 16.5 21.9963L16.5 22L8.45996 22L8.45996 21.9991C8.41846 21.9997 8.37671 22 8.33496 22C3.73169 22 0 18.1305 0 13.3571C0 9.50269 2.43335 6.23755 5.79395 5.12331C6.25977 2.2189 8.7771 0 11.8127 0C14.4172 0 16.6404 1.63338 17.5134 3.93166C17.5684 3.92961 17.6233 3.92857 17.6785 3.92857C20.0652 3.92857 22 5.86334 22 8.25C22 9.87321 21.105 11.2874 19.7817 12.026ZM16.5 20.4286L8.45996 20.4286L8.36938 20.4286L8.36938 20.4285L8.33496 20.4286C4.65283 20.4286 1.57153 17.3168 1.57153 13.3571C1.57153 9.39751 4.65283 6.28571 8.33496 6.28571C11.4587 6.28571 14.1501 8.52503 14.8948 11.6216L14.897 11.6207C15.0022 12.0503 15.0693 12.4957 15.0942 12.9529C15.5837 12.7075 16.1284 12.5714 16.6958 12.5714C18.7041 12.5714 20.4285 14.2761 20.4285 16.5C20.4285 18.7083 18.7283 20.4046 16.738 20.4283L16.738 20.4286L16.5 20.4286Z" fill="#FFFFFF" fill-opacity="1.000000" fill-rule="evenodd"/>
</svg>
