<svg width="28.000000" height="28.000000" viewBox="0 0 28 28" fill="none" xmlns="http://www.w3.org/2000/svg" xmlns:xlink="http://www.w3.org/1999/xlink">
	<desc>
			Created with Pixso.
	</desc>
	<defs>
		<clipPath id="clip129_5344">
			<rect width="28.000000" height="28.000000" fill="white" fill-opacity="0"/>
		</clipPath>
	</defs>
	<rect width="28.000000" height="28.000000" fill="#FFFFFF" fill-opacity="0"/>
	<g clip-path="url(#clip129_5344)">
		<path d="M19.3845 11.8462C19.3845 9.77084 18.647 7.99561 17.1719 6.52045C15.6968 5.04529 13.9214 4.30768 11.8462 4.30768C9.77075 4.30768 7.99561 5.04529 6.52051 6.52045C5.04517 7.99561 4.30762 9.77084 4.30762 11.8462C4.30762 13.9215 5.04517 15.6967 6.52051 17.1719C7.99561 18.647 9.77075 19.3846 11.8462 19.3846C13.9214 19.3846 15.6968 18.647 17.1719 17.1719C18.647 15.6967 19.3845 13.9215 19.3845 11.8462ZM28 25.8462C28 26.4295 27.7869 26.9343 27.3606 27.3606C26.9343 27.7869 26.4294 28 25.8462 28C25.2405 28 24.7356 27.7869 24.3318 27.3606L18.5601 21.6058C16.552 22.9968 14.3142 23.6923 11.8462 23.6923C10.2419 23.6923 8.70801 23.381 7.2439 22.7584C5.78003 22.1358 4.51807 21.2945 3.45801 20.2344C2.39795 19.1743 1.5564 17.9123 0.933838 16.4483C0.311279 14.9844 0 13.4503 0 11.8462C0 10.242 0.311279 8.70795 0.933838 7.24399C1.5564 5.78006 2.39795 4.51804 3.45801 3.45795C4.51807 2.39783 5.78003 1.55649 7.2439 0.933899C8.70801 0.31131 10.2419 0 11.8462 0C13.4504 0 14.9844 0.31131 16.4482 0.933899C17.9124 1.55649 19.1743 2.39783 20.2344 3.45795C21.2944 4.51804 22.1357 5.78006 22.7583 7.24399C23.3811 8.70795 23.6924 10.242 23.6924 11.8462C23.6924 14.3141 22.9968 16.5521 21.6057 18.5601L27.3774 24.3317C27.7925 24.7468 28 25.2516 28 25.8462Z" fill="#FFFFFF" fill-opacity="1.000000" fill-rule="nonzero"/>
	</g>
</svg>
