<svg width="70.000000" height="70.000000" viewBox="0 0 70 70" fill="none" xmlns="http://www.w3.org/2000/svg" xmlns:xlink="http://www.w3.org/1999/xlink">
	<desc>
			Created with Pixso.
	</desc>
	<defs>
		<clipPath id="clip16_773">
			<rect id="32icon-grid" width="70.000000" height="70.000000" fill="white" fill-opacity="0"/>
		</clipPath>
		<clipPath id="clip129_5349">
			<rect id="32/Cloudy" width="70.000000" height="70.000000" fill="white" fill-opacity="0"/>
		</clipPath>
	</defs>
	<g clip-path="url(#clip129_5349)">
		<path id="outline" d="M25.2256 17.6224C26 17.5415 26.7856 17.5 27.5806 17.5C38.2134 17.5 47.1758 24.9151 49.9209 35.0303C50.1406 35.0161 50.3618 35.0068 50.584 35.0026C50.4937 35.001 50.4031 35.0002 50.3125 35.0002L50.239 35.0004L50.239 35L53.5938 35L53.7253 35L53.7253 34.9989C57.8931 34.9286 61.25 31.5282 61.25 27.3438C61.25 23.1153 57.822 19.6875 53.5938 19.6875C52.1738 19.6875 50.8445 20.0739 49.7046 20.7474C49.7014 19.5251 49.5156 18.3458 49.1736 17.235C47.469 12.297 42.7803 8.75 37.2629 8.75C31.6025 8.75 26.814 12.4835 25.2256 17.6224ZM59.449 37.8566C63.1885 40.6347 65.625 45.1785 65.625 50.3125C65.625 58.7693 59.0134 65.6249 50.8579 65.6249C50.6753 65.6249 50.4934 65.6215 50.3125 65.6147L50.3125 65.625L27.928 65.625L27.928 65.6224C27.8125 65.6241 27.6965 65.625 27.5806 65.625C14.7644 65.625 4.375 54.8519 4.375 41.5625C4.375 30.8313 11.1497 21.7409 20.5059 18.6387C21.8027 10.5526 28.8113 4.375 37.2629 4.375C44.5142 4.375 50.7034 8.92246 53.134 15.3211C53.2866 15.3154 53.4397 15.3125 53.5938 15.3125C60.2383 15.3125 65.625 20.6991 65.625 27.3438C65.625 31.8629 63.1333 35.8001 59.449 37.8566ZM50.3125 61.25L27.928 61.25L27.6763 61.25L27.6763 61.2498L27.5806 61.25C17.3289 61.25 8.75 52.5865 8.75 41.5625C8.75 30.5385 17.3289 21.875 27.5806 21.875C36.2771 21.875 43.77 28.1095 45.843 36.7306L45.8496 36.7279C46.1426 37.9241 46.3291 39.1643 46.3987 40.437C47.7617 39.7538 49.2783 39.375 50.8579 39.375C56.4492 39.375 61.25 44.121 61.25 50.3125C61.25 56.4606 56.5161 61.1834 50.9751 61.2492L50.9751 61.25L50.3125 61.25Z" fill="#FFFFFF" fill-opacity="1.000000" fill-rule="evenodd"/>
	</g>
</svg>
