<svg width="24.000000" height="19.000090" viewBox="0 0 24 19.0001" fill="none" xmlns="http://www.w3.org/2000/svg" xmlns:xlink="http://www.w3.org/1999/xlink">
	<desc>
			Created with Pixso.
	</desc>
	<defs/>
	<path id="outline" d="M10.0002 3.99437L10.0002 3.98848L4.33936 3.98841L9.76929 2.02633L9.7688 2.02472C9.8728 1.9985 9.98047 1.98917 10.0874 1.99715C10.1016 1.99821 10.1157 1.99957 10.1299 2.00122L10.1301 2.00125C10.2771 2.01857 10.4185 2.06835 10.5439 2.14699L10.5439 2.147C10.6694 2.22565 10.7759 2.33119 10.8555 2.456L10.8557 2.4562C10.9353 2.58102 10.9863 2.72199 11.0049 2.86892L11.0049 2.8692C11.0234 3.01619 11.0093 3.16546 10.9629 3.30623L10.9629 3.30634C10.9167 3.44714 10.8398 3.57591 10.7378 3.68333L10.7378 3.68343C10.6357 3.79081 10.511 3.87416 10.3728 3.92747L10.3726 3.92757C10.3596 3.93258 10.3464 3.93731 10.3333 3.94176C10.2261 3.97807 10.1133 3.99583 10.0002 3.99437ZM0 3.42958L0 5.98853L9.97949 5.98865C10.3586 5.9929 10.7356 5.92511 11.0903 5.78827L11.0906 5.78816C11.3606 5.68397 11.6133 5.54147 11.8411 5.36566C11.9624 5.27205 12.0769 5.16899 12.1831 5.05725L12.1831 5.05715C12.4885 4.73555 12.719 4.35005 12.8572 3.92854L12.8572 3.92842C12.9956 3.50691 13.0386 3.05991 12.9832 2.61975L12.9832 2.61947C12.9275 2.1793 12.7749 1.75698 12.5361 1.38303L12.5361 1.38283C12.2974 1.00884 11.9785 0.692604 11.6025 0.456989L11.6025 0.456978C11.4719 0.375103 11.3354 0.303673 11.1948 0.243141C10.9302 0.12949 10.6499 0.0542679 10.3625 0.0204697L10.3623 0.0204468C9.93408 -0.0298767 9.5 0.0129738 9.09009 0.145889L9.08984 0.145035L9.05908 0.156124L9.05542 0.157341L9.05518 0.157482L9.05518 0.15757L0 3.42958ZM0 11.998L0 14.0525L13.2058 18.7506L13.2056 18.751C13.6836 18.9417 14.1978 19.0246 14.7112 18.9938C14.9087 18.982 15.1042 18.9534 15.2959 18.9088C15.6025 18.8373 15.8992 18.7245 16.177 18.5728C16.6289 18.3264 17.0205 17.9833 17.3247 17.568C17.6287 17.1527 17.8372 16.6755 17.9358 16.1703C18.0342 15.6652 18.02 15.1445 17.8943 14.6454C17.7686 14.1463 17.5344 13.6811 17.2083 13.283C17.0076 13.0379 16.7751 12.8219 16.5178 12.6404C16.3569 12.527 16.1865 12.4271 16.0081 12.3419C15.5444 12.1207 15.0376 12.0043 14.5239 12.0011L14.5239 11.9981L0 11.998ZM14.5103 13.9983L5.81519 13.9982L13.9841 16.9045L13.9834 16.9065C14.1777 16.9782 14.3848 17.0089 14.5916 16.9964C14.8115 16.9833 15.0259 16.9217 15.2192 16.8162C15.4126 16.7106 15.5806 16.5637 15.7107 16.3859C15.8408 16.2081 15.9302 16.0037 15.9724 15.7874C16.0144 15.571 16.0085 15.3481 15.9546 15.1344C15.9009 14.9206 15.8005 14.7214 15.6609 14.5509C15.5212 14.3804 15.3457 14.2428 15.1467 14.1479C14.9482 14.0532 14.7312 14.0034 14.5112 14.002L14.5103 14.002L14.5103 14.0016L14.5103 13.9983ZM19.0181 4.24812L19.0171 4.24862L18.0337 2.50716L18.0325 2.50515L18.0344 2.50404C18.5669 2.2035 19.1614 2.02907 19.7717 1.99417C19.8604 1.98911 19.9487 1.987 20.0374 1.98783C20.5591 1.99269 21.0757 2.09964 21.5579 2.3036C22.1218 2.54211 22.6233 2.90691 23.0242 3.36989C23.4248 3.83287 23.7139 4.38168 23.8691 4.97404C24.0244 5.56641 24.0417 6.18652 23.9197 6.78661C23.7976 7.38671 23.5396 7.95077 23.165 8.43534C22.845 8.84967 22.4473 9.19644 21.9951 9.45676C21.9185 9.50089 21.8403 9.54254 21.7605 9.58161C21.2109 9.85115 20.6067 9.99088 19.9944 9.99002L19.9944 9.98973L0 9.98973L0 7.98973L19.9973 7.98973L19.9973 7.98756C20.303 7.98799 20.605 7.9182 20.8794 7.78355C21.1541 7.64891 21.394 7.45301 21.5811 7.21095C21.7681 6.96889 21.897 6.68712 21.958 6.38736C22.019 6.08759 22.0103 5.77782 21.9329 5.48191C21.8552 5.18601 21.7107 4.91186 21.5107 4.68058C21.3105 4.44931 21.0598 4.26708 20.7783 4.14793C20.4966 4.02879 20.1914 3.97591 19.886 3.99337C19.5811 4.0108 19.2842 4.09795 19.0181 4.24812Z" fill="#FFFFFF" fill-opacity="1.000000" fill-rule="evenodd"/>
</svg>
